G04 #@! TF.GenerationSoftware,KiCad,Pcbnew,(5.1.5)-3*
G04 #@! TF.CreationDate,2020-10-25T11:05:08-05:00*
G04 #@! TF.ProjectId,WireLink,57697265-4c69-46e6-9b2e-6b696361645f,rev?*
G04 #@! TF.SameCoordinates,Original*
G04 #@! TF.FileFunction,Soldermask,Bot*
G04 #@! TF.FilePolarity,Negative*
%FSLAX46Y46*%
G04 Gerber Fmt 4.6, Leading zero omitted, Abs format (unit mm)*
G04 Created by KiCad (PCBNEW (5.1.5)-3) date 2020-10-25 11:05:08*
%MOMM*%
%LPD*%
G04 APERTURE LIST*
%ADD10C,0.100000*%
G04 APERTURE END LIST*
D10*
G36*
X191243254Y-106224335D02*
G01*
X191408288Y-106274398D01*
X191573321Y-106324460D01*
X191877510Y-106487052D01*
X192144135Y-106705865D01*
X192362948Y-106972490D01*
X192506945Y-107241890D01*
X192525539Y-107276677D01*
X192625665Y-107606746D01*
X192659472Y-107950000D01*
X192625665Y-108293254D01*
X192625664Y-108293256D01*
X192525540Y-108623321D01*
X192362948Y-108927510D01*
X192144135Y-109194135D01*
X191877510Y-109412948D01*
X191573321Y-109575540D01*
X191408289Y-109625602D01*
X191243254Y-109675665D01*
X190986021Y-109701000D01*
X190013979Y-109701000D01*
X189756746Y-109675665D01*
X189591711Y-109625602D01*
X189426679Y-109575540D01*
X189122490Y-109412948D01*
X188855865Y-109194135D01*
X188637052Y-108927510D01*
X188474460Y-108623321D01*
X188374336Y-108293256D01*
X188374335Y-108293254D01*
X188340528Y-107950000D01*
X188374335Y-107606746D01*
X188474461Y-107276677D01*
X188493055Y-107241890D01*
X188637052Y-106972490D01*
X188855865Y-106705865D01*
X189122490Y-106487052D01*
X189426679Y-106324460D01*
X189591712Y-106274398D01*
X189756746Y-106224335D01*
X190013979Y-106199000D01*
X190986021Y-106199000D01*
X191243254Y-106224335D01*
G37*
G36*
X115043254Y-106224335D02*
G01*
X115208288Y-106274398D01*
X115373321Y-106324460D01*
X115677510Y-106487052D01*
X115944135Y-106705865D01*
X116162948Y-106972490D01*
X116306945Y-107241890D01*
X116325539Y-107276677D01*
X116425665Y-107606746D01*
X116459472Y-107950000D01*
X116425665Y-108293254D01*
X116425664Y-108293256D01*
X116325540Y-108623321D01*
X116162948Y-108927510D01*
X115944135Y-109194135D01*
X115677510Y-109412948D01*
X115373321Y-109575540D01*
X115208289Y-109625602D01*
X115043254Y-109675665D01*
X114786021Y-109701000D01*
X113813979Y-109701000D01*
X113556746Y-109675665D01*
X113391711Y-109625602D01*
X113226679Y-109575540D01*
X112922490Y-109412948D01*
X112655865Y-109194135D01*
X112437052Y-108927510D01*
X112274460Y-108623321D01*
X112174336Y-108293256D01*
X112174335Y-108293254D01*
X112140528Y-107950000D01*
X112174335Y-107606746D01*
X112274461Y-107276677D01*
X112293055Y-107241890D01*
X112437052Y-106972490D01*
X112655865Y-106705865D01*
X112922490Y-106487052D01*
X113226679Y-106324460D01*
X113391712Y-106274398D01*
X113556746Y-106224335D01*
X113813979Y-106199000D01*
X114786021Y-106199000D01*
X115043254Y-106224335D01*
G37*
G36*
X134385787Y-98185462D02*
G01*
X134385790Y-98185463D01*
X134385789Y-98185463D01*
X135032029Y-98453144D01*
X135613631Y-98841758D01*
X136108242Y-99336369D01*
X136496856Y-99917971D01*
X136662381Y-100317584D01*
X136680255Y-100360736D01*
X136691806Y-100382347D01*
X136707351Y-100401289D01*
X136726293Y-100416834D01*
X136747904Y-100428385D01*
X136771353Y-100435498D01*
X136795739Y-100437900D01*
X136820125Y-100435498D01*
X136843574Y-100428385D01*
X136865185Y-100416834D01*
X136884127Y-100401289D01*
X136899672Y-100382347D01*
X136911223Y-100360736D01*
X136996469Y-100154933D01*
X137200887Y-99849000D01*
X137330335Y-99655267D01*
X137755267Y-99230335D01*
X137969133Y-99087435D01*
X138254933Y-98896469D01*
X138810132Y-98666498D01*
X139104830Y-98607879D01*
X139399527Y-98549260D01*
X140000473Y-98549260D01*
X140295170Y-98607879D01*
X140589868Y-98666498D01*
X141145067Y-98896469D01*
X141430867Y-99087435D01*
X141644733Y-99230335D01*
X142069665Y-99655267D01*
X142199113Y-99849000D01*
X142403531Y-100154933D01*
X142488777Y-100360736D01*
X142500328Y-100382347D01*
X142515873Y-100401289D01*
X142534815Y-100416834D01*
X142556426Y-100428385D01*
X142579875Y-100435498D01*
X142604261Y-100437900D01*
X142628647Y-100435498D01*
X142652096Y-100428385D01*
X142673707Y-100416834D01*
X142692649Y-100401289D01*
X142708194Y-100382347D01*
X142719745Y-100360736D01*
X142737619Y-100317584D01*
X142903144Y-99917971D01*
X143291758Y-99336369D01*
X143786369Y-98841758D01*
X144367971Y-98453144D01*
X145014211Y-98185463D01*
X145014210Y-98185463D01*
X145014213Y-98185462D01*
X145700256Y-98049000D01*
X146399744Y-98049000D01*
X147085787Y-98185462D01*
X147085790Y-98185463D01*
X147085789Y-98185463D01*
X147732029Y-98453144D01*
X148313631Y-98841758D01*
X148808242Y-99336369D01*
X149196856Y-99917971D01*
X149362381Y-100317584D01*
X149464538Y-100564213D01*
X149601000Y-101250256D01*
X149601000Y-101949744D01*
X149464538Y-102635787D01*
X149412217Y-102762100D01*
X149196856Y-103282029D01*
X148808242Y-103863631D01*
X148313631Y-104358242D01*
X147732029Y-104746856D01*
X147275068Y-104936135D01*
X147085787Y-105014538D01*
X146399744Y-105151000D01*
X145700256Y-105151000D01*
X145014213Y-105014538D01*
X144824932Y-104936135D01*
X144367971Y-104746856D01*
X143786369Y-104358242D01*
X143291758Y-103863631D01*
X142903144Y-103282029D01*
X142719745Y-102839264D01*
X142708194Y-102817653D01*
X142692649Y-102798711D01*
X142673707Y-102783166D01*
X142652096Y-102771615D01*
X142628647Y-102764502D01*
X142604261Y-102762100D01*
X142579875Y-102764502D01*
X142556426Y-102771615D01*
X142534815Y-102783166D01*
X142515873Y-102798711D01*
X142500328Y-102817653D01*
X142488779Y-102839261D01*
X142403531Y-103045067D01*
X142216042Y-103325664D01*
X142069665Y-103544733D01*
X141644733Y-103969665D01*
X141430867Y-104112565D01*
X141145067Y-104303531D01*
X140589868Y-104533502D01*
X140295170Y-104592121D01*
X140000473Y-104650740D01*
X139399527Y-104650740D01*
X139104830Y-104592121D01*
X138810132Y-104533502D01*
X138254933Y-104303531D01*
X137969133Y-104112565D01*
X137755267Y-103969665D01*
X137330335Y-103544733D01*
X137183958Y-103325664D01*
X136996469Y-103045067D01*
X136911221Y-102839261D01*
X136899672Y-102817653D01*
X136884127Y-102798711D01*
X136865185Y-102783166D01*
X136843574Y-102771615D01*
X136820125Y-102764502D01*
X136795739Y-102762100D01*
X136771353Y-102764502D01*
X136747904Y-102771615D01*
X136726293Y-102783166D01*
X136707351Y-102798711D01*
X136691806Y-102817653D01*
X136680255Y-102839264D01*
X136496856Y-103282029D01*
X136108242Y-103863631D01*
X135613631Y-104358242D01*
X135032029Y-104746856D01*
X134575068Y-104936135D01*
X134385787Y-105014538D01*
X133699744Y-105151000D01*
X133000256Y-105151000D01*
X132314213Y-105014538D01*
X132124932Y-104936135D01*
X131667971Y-104746856D01*
X131086369Y-104358242D01*
X130591758Y-103863631D01*
X130203144Y-103282029D01*
X129987783Y-102762100D01*
X129935462Y-102635787D01*
X129799000Y-101949744D01*
X129799000Y-101250256D01*
X129935462Y-100564213D01*
X130037619Y-100317584D01*
X130203144Y-99917971D01*
X130591758Y-99336369D01*
X131086369Y-98841758D01*
X131667971Y-98453144D01*
X132314211Y-98185463D01*
X132314210Y-98185463D01*
X132314213Y-98185462D01*
X133000256Y-98049000D01*
X133699744Y-98049000D01*
X134385787Y-98185462D01*
G37*
G36*
X159785787Y-98185462D02*
G01*
X159785790Y-98185463D01*
X159785789Y-98185463D01*
X160432029Y-98453144D01*
X161013631Y-98841758D01*
X161508242Y-99336369D01*
X161896856Y-99917971D01*
X162062381Y-100317584D01*
X162080255Y-100360736D01*
X162091806Y-100382347D01*
X162107351Y-100401289D01*
X162126293Y-100416834D01*
X162147904Y-100428385D01*
X162171353Y-100435498D01*
X162195739Y-100437900D01*
X162220125Y-100435498D01*
X162243574Y-100428385D01*
X162265185Y-100416834D01*
X162284127Y-100401289D01*
X162299672Y-100382347D01*
X162311223Y-100360736D01*
X162396469Y-100154933D01*
X162600887Y-99849000D01*
X162730335Y-99655267D01*
X163155267Y-99230335D01*
X163369133Y-99087435D01*
X163654933Y-98896469D01*
X164210132Y-98666498D01*
X164504830Y-98607879D01*
X164799527Y-98549260D01*
X165400473Y-98549260D01*
X165695170Y-98607879D01*
X165989868Y-98666498D01*
X166545067Y-98896469D01*
X166830867Y-99087435D01*
X167044733Y-99230335D01*
X167469665Y-99655267D01*
X167599113Y-99849000D01*
X167803531Y-100154933D01*
X167888777Y-100360736D01*
X167900328Y-100382347D01*
X167915873Y-100401289D01*
X167934815Y-100416834D01*
X167956426Y-100428385D01*
X167979875Y-100435498D01*
X168004261Y-100437900D01*
X168028647Y-100435498D01*
X168052096Y-100428385D01*
X168073707Y-100416834D01*
X168092649Y-100401289D01*
X168108194Y-100382347D01*
X168119745Y-100360736D01*
X168137619Y-100317584D01*
X168303144Y-99917971D01*
X168691758Y-99336369D01*
X169186369Y-98841758D01*
X169767971Y-98453144D01*
X170414211Y-98185463D01*
X170414210Y-98185463D01*
X170414213Y-98185462D01*
X171100256Y-98049000D01*
X171799744Y-98049000D01*
X172485787Y-98185462D01*
X172485790Y-98185463D01*
X172485789Y-98185463D01*
X173132029Y-98453144D01*
X173713631Y-98841758D01*
X174208242Y-99336369D01*
X174596856Y-99917971D01*
X174762381Y-100317584D01*
X174864538Y-100564213D01*
X175001000Y-101250256D01*
X175001000Y-101949744D01*
X174864538Y-102635787D01*
X174812217Y-102762100D01*
X174596856Y-103282029D01*
X174208242Y-103863631D01*
X173713631Y-104358242D01*
X173132029Y-104746856D01*
X172675068Y-104936135D01*
X172485787Y-105014538D01*
X171799744Y-105151000D01*
X171100256Y-105151000D01*
X170414213Y-105014538D01*
X170224932Y-104936135D01*
X169767971Y-104746856D01*
X169186369Y-104358242D01*
X168691758Y-103863631D01*
X168303144Y-103282029D01*
X168119745Y-102839264D01*
X168108194Y-102817653D01*
X168092649Y-102798711D01*
X168073707Y-102783166D01*
X168052096Y-102771615D01*
X168028647Y-102764502D01*
X168004261Y-102762100D01*
X167979875Y-102764502D01*
X167956426Y-102771615D01*
X167934815Y-102783166D01*
X167915873Y-102798711D01*
X167900328Y-102817653D01*
X167888779Y-102839261D01*
X167803531Y-103045067D01*
X167616042Y-103325664D01*
X167469665Y-103544733D01*
X167044733Y-103969665D01*
X166830867Y-104112565D01*
X166545067Y-104303531D01*
X165989868Y-104533502D01*
X165695170Y-104592121D01*
X165400473Y-104650740D01*
X164799527Y-104650740D01*
X164504830Y-104592121D01*
X164210132Y-104533502D01*
X163654933Y-104303531D01*
X163369133Y-104112565D01*
X163155267Y-103969665D01*
X162730335Y-103544733D01*
X162583958Y-103325664D01*
X162396469Y-103045067D01*
X162311221Y-102839261D01*
X162299672Y-102817653D01*
X162284127Y-102798711D01*
X162265185Y-102783166D01*
X162243574Y-102771615D01*
X162220125Y-102764502D01*
X162195739Y-102762100D01*
X162171353Y-102764502D01*
X162147904Y-102771615D01*
X162126293Y-102783166D01*
X162107351Y-102798711D01*
X162091806Y-102817653D01*
X162080255Y-102839264D01*
X161896856Y-103282029D01*
X161508242Y-103863631D01*
X161013631Y-104358242D01*
X160432029Y-104746856D01*
X159975068Y-104936135D01*
X159785787Y-105014538D01*
X159099744Y-105151000D01*
X158400256Y-105151000D01*
X157714213Y-105014538D01*
X157524932Y-104936135D01*
X157067971Y-104746856D01*
X156486369Y-104358242D01*
X155991758Y-103863631D01*
X155603144Y-103282029D01*
X155387783Y-102762100D01*
X155335462Y-102635787D01*
X155199000Y-101949744D01*
X155199000Y-101250256D01*
X155335462Y-100564213D01*
X155437619Y-100317584D01*
X155603144Y-99917971D01*
X155991758Y-99336369D01*
X156486369Y-98841758D01*
X157067971Y-98453144D01*
X157714211Y-98185463D01*
X157714210Y-98185463D01*
X157714213Y-98185462D01*
X158400256Y-98049000D01*
X159099744Y-98049000D01*
X159785787Y-98185462D01*
G37*
G36*
X184893254Y-99874335D02*
G01*
X185037105Y-99917972D01*
X185223321Y-99974460D01*
X185527510Y-100137052D01*
X185794135Y-100355865D01*
X186012948Y-100622490D01*
X186156945Y-100891890D01*
X186175539Y-100926677D01*
X186275665Y-101256746D01*
X186309472Y-101600000D01*
X186275665Y-101943254D01*
X186273696Y-101949744D01*
X186175540Y-102273321D01*
X186012948Y-102577510D01*
X185794135Y-102844135D01*
X185527510Y-103062948D01*
X185223321Y-103225540D01*
X185058289Y-103275602D01*
X184893254Y-103325665D01*
X184636021Y-103351000D01*
X183663979Y-103351000D01*
X183406746Y-103325665D01*
X183241711Y-103275602D01*
X183076679Y-103225540D01*
X182772490Y-103062948D01*
X182505865Y-102844135D01*
X182287052Y-102577510D01*
X182124460Y-102273321D01*
X182026304Y-101949744D01*
X182024335Y-101943254D01*
X181990528Y-101600000D01*
X182024335Y-101256746D01*
X182124461Y-100926677D01*
X182143055Y-100891890D01*
X182287052Y-100622490D01*
X182505865Y-100355865D01*
X182772490Y-100137052D01*
X183076679Y-99974460D01*
X183262895Y-99917972D01*
X183406746Y-99874335D01*
X183663979Y-99849000D01*
X184636021Y-99849000D01*
X184893254Y-99874335D01*
G37*
G36*
X121393254Y-99874335D02*
G01*
X121537105Y-99917972D01*
X121723321Y-99974460D01*
X122027510Y-100137052D01*
X122294135Y-100355865D01*
X122512948Y-100622490D01*
X122656945Y-100891890D01*
X122675539Y-100926677D01*
X122775665Y-101256746D01*
X122809472Y-101600000D01*
X122775665Y-101943254D01*
X122773696Y-101949744D01*
X122675540Y-102273321D01*
X122512948Y-102577510D01*
X122294135Y-102844135D01*
X122027510Y-103062948D01*
X121723321Y-103225540D01*
X121558289Y-103275602D01*
X121393254Y-103325665D01*
X121136021Y-103351000D01*
X120163979Y-103351000D01*
X119906746Y-103325665D01*
X119741711Y-103275602D01*
X119576679Y-103225540D01*
X119272490Y-103062948D01*
X119005865Y-102844135D01*
X118787052Y-102577510D01*
X118624460Y-102273321D01*
X118526304Y-101949744D01*
X118524335Y-101943254D01*
X118490528Y-101600000D01*
X118524335Y-101256746D01*
X118624461Y-100926677D01*
X118643055Y-100891890D01*
X118787052Y-100622490D01*
X119005865Y-100355865D01*
X119272490Y-100137052D01*
X119576679Y-99974460D01*
X119762895Y-99917972D01*
X119906746Y-99874335D01*
X120163979Y-99849000D01*
X121136021Y-99849000D01*
X121393254Y-99874335D01*
G37*
G36*
X152775256Y-99991298D02*
G01*
X152881579Y-100012447D01*
X153182042Y-100136903D01*
X153452451Y-100317585D01*
X153682415Y-100547549D01*
X153863097Y-100817958D01*
X153863098Y-100817960D01*
X153987553Y-101118422D01*
X154051000Y-101437389D01*
X154051000Y-101762611D01*
X154015068Y-101943254D01*
X153987553Y-102081579D01*
X153863097Y-102382042D01*
X153682415Y-102652451D01*
X153452451Y-102882415D01*
X153182042Y-103063097D01*
X152881579Y-103187553D01*
X152775256Y-103208702D01*
X152562611Y-103251000D01*
X152237389Y-103251000D01*
X152024744Y-103208702D01*
X151918421Y-103187553D01*
X151617958Y-103063097D01*
X151347549Y-102882415D01*
X151117585Y-102652451D01*
X150936903Y-102382042D01*
X150812447Y-102081579D01*
X150784932Y-101943254D01*
X150749000Y-101762611D01*
X150749000Y-101437389D01*
X150812447Y-101118422D01*
X150936902Y-100817960D01*
X150936903Y-100817958D01*
X151117585Y-100547549D01*
X151347549Y-100317585D01*
X151617958Y-100136903D01*
X151918421Y-100012447D01*
X152024744Y-99991298D01*
X152237389Y-99949000D01*
X152562611Y-99949000D01*
X152775256Y-99991298D01*
G37*
G36*
X115043254Y-93524335D02*
G01*
X115208288Y-93574398D01*
X115373321Y-93624460D01*
X115677510Y-93787052D01*
X115944135Y-94005865D01*
X116162948Y-94272490D01*
X116306945Y-94541890D01*
X116325539Y-94576677D01*
X116425665Y-94906746D01*
X116459472Y-95250000D01*
X116425665Y-95593254D01*
X116425664Y-95593256D01*
X116325540Y-95923321D01*
X116162948Y-96227510D01*
X115944135Y-96494135D01*
X115677510Y-96712948D01*
X115373321Y-96875540D01*
X115208289Y-96925602D01*
X115043254Y-96975665D01*
X114786021Y-97001000D01*
X113813979Y-97001000D01*
X113556746Y-96975665D01*
X113391711Y-96925602D01*
X113226679Y-96875540D01*
X112922490Y-96712948D01*
X112655865Y-96494135D01*
X112437052Y-96227510D01*
X112274460Y-95923321D01*
X112174336Y-95593256D01*
X112174335Y-95593254D01*
X112140528Y-95250000D01*
X112174335Y-94906746D01*
X112274461Y-94576677D01*
X112293055Y-94541890D01*
X112437052Y-94272490D01*
X112655865Y-94005865D01*
X112922490Y-93787052D01*
X113226679Y-93624460D01*
X113391712Y-93574398D01*
X113556746Y-93524335D01*
X113813979Y-93499000D01*
X114786021Y-93499000D01*
X115043254Y-93524335D01*
G37*
G36*
X191243254Y-93524335D02*
G01*
X191408288Y-93574398D01*
X191573321Y-93624460D01*
X191877510Y-93787052D01*
X192144135Y-94005865D01*
X192362948Y-94272490D01*
X192506945Y-94541890D01*
X192525539Y-94576677D01*
X192625665Y-94906746D01*
X192659472Y-95250000D01*
X192625665Y-95593254D01*
X192625664Y-95593256D01*
X192525540Y-95923321D01*
X192362948Y-96227510D01*
X192144135Y-96494135D01*
X191877510Y-96712948D01*
X191573321Y-96875540D01*
X191408289Y-96925602D01*
X191243254Y-96975665D01*
X190986021Y-97001000D01*
X190013979Y-97001000D01*
X189756746Y-96975665D01*
X189591711Y-96925602D01*
X189426679Y-96875540D01*
X189122490Y-96712948D01*
X188855865Y-96494135D01*
X188637052Y-96227510D01*
X188474460Y-95923321D01*
X188374336Y-95593256D01*
X188374335Y-95593254D01*
X188340528Y-95250000D01*
X188374335Y-94906746D01*
X188474461Y-94576677D01*
X188493055Y-94541890D01*
X188637052Y-94272490D01*
X188855865Y-94005865D01*
X189122490Y-93787052D01*
X189426679Y-93624460D01*
X189591712Y-93574398D01*
X189756746Y-93524335D01*
X190013979Y-93499000D01*
X190986021Y-93499000D01*
X191243254Y-93524335D01*
G37*
M02*
