G04 #@! TF.GenerationSoftware,KiCad,Pcbnew,(5.1.5)-3*
G04 #@! TF.CreationDate,2020-10-25T11:05:08-05:00*
G04 #@! TF.ProjectId,WireLink,57697265-4c69-46e6-9b2e-6b696361645f,rev?*
G04 #@! TF.SameCoordinates,Original*
G04 #@! TF.FileFunction,Copper,L1,Top*
G04 #@! TF.FilePolarity,Positive*
%FSLAX46Y46*%
G04 Gerber Fmt 4.6, Leading zero omitted, Abs format (unit mm)*
G04 Created by KiCad (PCBNEW (5.1.5)-3) date 2020-10-25 11:05:08*
%MOMM*%
%LPD*%
G04 APERTURE LIST*
%ADD10C,0.381000*%
%ADD11C,7.000000*%
%ADD12C,5.999480*%
G04 APERTURE END LIST*
D10*
X127889000Y-96774000D02*
X128397000Y-94107000D01*
X131826000Y-93599000D02*
X127889000Y-96774000D01*
X126746000Y-99695000D02*
X131826000Y-93599000D01*
X130302000Y-99949000D02*
X126746000Y-99695000D01*
X125603000Y-106807000D02*
X130302000Y-99949000D01*
X126619000Y-106426000D02*
X125603000Y-106807000D01*
X125095000Y-108331000D02*
X126619000Y-106426000D01*
X125222000Y-105664000D02*
X125095000Y-108331000D01*
X125349000Y-106934000D02*
X125222000Y-105664000D01*
X128397000Y-100838000D02*
X125349000Y-106934000D01*
X124333000Y-100838000D02*
X128397000Y-100838000D01*
X128397000Y-94107000D02*
X124333000Y-100838000D01*
X129540000Y-100584000D02*
X128270000Y-102616000D01*
X128905000Y-100584000D02*
X129540000Y-100584000D01*
X126111000Y-105918000D02*
X128905000Y-100584000D01*
X129413000Y-100330000D02*
X126111000Y-105918000D01*
X126365000Y-100457000D02*
X129413000Y-100330000D01*
X126492000Y-100076000D02*
X126365000Y-100457000D01*
X129921000Y-100076000D02*
X126492000Y-100076000D01*
X129540000Y-100584000D02*
X129921000Y-100076000D01*
X125857000Y-100711000D02*
X129540000Y-100584000D01*
X129032000Y-96012000D02*
X125857000Y-100711000D01*
X126492000Y-98933000D02*
X129032000Y-96012000D01*
X130175000Y-95250000D02*
X126492000Y-98933000D01*
X125476000Y-100584000D02*
X130175000Y-95250000D01*
X127762000Y-96901000D02*
X125476000Y-100584000D01*
X125095000Y-100584000D02*
X127762000Y-96901000D01*
X127889000Y-96139000D02*
X125095000Y-100584000D01*
X124714000Y-100711000D02*
X127889000Y-96139000D01*
X128016000Y-95377000D02*
X124714000Y-100711000D01*
X125603000Y-106553000D02*
X125730000Y-106680000D01*
X125730000Y-106426000D02*
X125603000Y-106553000D01*
X125603000Y-106807000D02*
X125730000Y-106426000D01*
X125222000Y-107696000D02*
X125603000Y-106807000D01*
X125984000Y-106934000D02*
X125222000Y-107696000D01*
X130556000Y-94996000D02*
X127635000Y-97282000D01*
X128016000Y-94869000D02*
X127889000Y-95504000D01*
X126492000Y-99441000D02*
X126746000Y-100076000D01*
X178562000Y-97409000D02*
X179070000Y-94742000D01*
X182499000Y-94234000D02*
X178562000Y-97409000D01*
X177419000Y-100330000D02*
X182499000Y-94234000D01*
X180975000Y-100584000D02*
X177419000Y-100330000D01*
X176276000Y-107442000D02*
X180975000Y-100584000D01*
X177292000Y-107061000D02*
X176276000Y-107442000D01*
X175768000Y-108966000D02*
X177292000Y-107061000D01*
X175895000Y-106299000D02*
X175768000Y-108966000D01*
X176022000Y-107569000D02*
X175895000Y-106299000D01*
X179070000Y-101473000D02*
X176022000Y-107569000D01*
X175006000Y-101473000D02*
X179070000Y-101473000D01*
X179070000Y-94742000D02*
X175006000Y-101473000D01*
X180213000Y-101219000D02*
X178943000Y-103251000D01*
X179578000Y-101219000D02*
X180213000Y-101219000D01*
X176784000Y-106553000D02*
X179578000Y-101219000D01*
X180086000Y-100965000D02*
X176784000Y-106553000D01*
X177038000Y-101092000D02*
X180086000Y-100965000D01*
X177165000Y-100711000D02*
X177038000Y-101092000D01*
X180594000Y-100711000D02*
X177165000Y-100711000D01*
X180213000Y-101219000D02*
X180594000Y-100711000D01*
X176530000Y-101346000D02*
X180213000Y-101219000D01*
X179705000Y-96647000D02*
X176530000Y-101346000D01*
X177165000Y-99568000D02*
X179705000Y-96647000D01*
X180848000Y-95885000D02*
X177165000Y-99568000D01*
X176149000Y-101219000D02*
X180848000Y-95885000D01*
X178435000Y-97536000D02*
X176149000Y-101219000D01*
X175768000Y-101219000D02*
X178435000Y-97536000D01*
X178562000Y-96774000D02*
X175768000Y-101219000D01*
X175387000Y-101346000D02*
X178562000Y-96774000D01*
X178689000Y-96012000D02*
X175387000Y-101346000D01*
X176276000Y-107188000D02*
X176403000Y-107315000D01*
X176403000Y-107061000D02*
X176276000Y-107188000D01*
X176276000Y-107442000D02*
X176403000Y-107061000D01*
X175895000Y-108331000D02*
X176276000Y-107442000D01*
X176657000Y-107569000D02*
X175895000Y-108331000D01*
X181229000Y-95631000D02*
X178308000Y-97917000D01*
X178689000Y-95504000D02*
X178562000Y-96139000D01*
X177165000Y-100076000D02*
X177419000Y-100711000D01*
D11*
X146050000Y-101600000D03*
X158750000Y-101600000D03*
D12*
X139700000Y-101600000D03*
X165100000Y-101600000D03*
D11*
X133350000Y-101600000D03*
X171450000Y-101600000D03*
M02*
